<svg width="64" height="64" viewBox="0 0 64 64" fill="none" xmlns="http://www.w3.org/2000/svg">
<g clip-path="url(#clip0)">
<path d="M48.9667 35.8361C48.4417 40.3278 46.7792 43.7986 43.9792 46.2486C41.1986 48.6792 37.4944 49.8944 32.8667 49.8944C27.85 49.8944 23.825 48.0958 20.7917 44.4986C17.7778 40.9014 16.2708 36.0889 16.2708 30.0611V25.9778C16.2708 22.0306 16.9708 18.5597 18.3708 15.5653C19.7903 12.5708 21.793 10.2764 24.3792 8.68194C26.9653 7.06806 29.9597 6.26111 33.3625 6.26111C37.8736 6.26111 41.4903 7.525 44.2125 10.0528C46.9347 12.5611 48.5194 16.0417 48.9667 20.4944H43.3375C42.8514 17.1111 41.7917 14.6611 40.1583 13.1444C38.5444 11.6278 36.2792 10.8694 33.3625 10.8694C29.7847 10.8694 26.975 12.1917 24.9333 14.8361C22.9111 17.4806 21.9 21.2431 21.9 26.1236V30.2361C21.9 34.8444 22.8625 38.5097 24.7875 41.2319C26.7125 43.9542 29.4055 45.3153 32.8667 45.3153C35.9778 45.3153 38.3597 44.6153 40.0125 43.2153C41.6847 41.7958 42.793 39.3361 43.3375 35.8361H48.9667Z" fill="white"/>
<rect x="13.5111" y="58.3111" width="38.4" height="5.68889" fill="white"/>
</g>
<defs>
<clipPath id="clip0">
<rect width="64" height="64" fill="white"/>
</clipPath>
</defs>
</svg>
