<svg width="90" height="35" viewBox="0 0 90 35" fill="none" xmlns="http://www.w3.org/2000/svg">
<path d="M53.112 31.2578H36.888V3.74109H53.112V31.2578Z" fill="#6C6BBD"/>
<path d="M37.9178 17.5C37.9178 11.9181 40.6871 6.94593 44.9995 3.74166C41.8459 1.39853 37.866 2.32976e-07 33.5406 2.32976e-07C23.3006 2.32976e-07 15 7.83489 15 17.5C15 27.1651 23.3006 35 33.5406 35C37.866 35 41.8459 33.6015 44.9995 31.2583C40.6871 28.0541 37.9178 23.0819 37.9178 17.5Z" fill="#D32011"/>
<path d="M75 17.5C75 27.1651 66.6993 35 56.4594 35C52.134 35 48.1541 33.6015 44.9993 31.2583C49.3129 28.0541 52.0822 23.0819 52.0822 17.5C52.0822 11.9181 49.3129 6.94593 44.9993 3.74166C48.1541 1.39853 52.134 2.32976e-07 56.4594 2.32976e-07C66.6993 2.32976e-07 75 7.83489 75 17.5Z" fill="#0099DF"/>
</svg>
