<svg width="90" height="35" viewBox="0 0 90 35" fill="none" xmlns="http://www.w3.org/2000/svg">
<path d="M52.9743 32H35.5063V3H52.9747L52.9743 32Z" fill="#FF5F00"/>
<path d="M36.8918 17.5C36.8918 11.9182 39.5371 6.946 43.6564 3.74166C40.5383 1.31257 36.6817 -0.00577757 32.7108 1.90337e-05C22.9292 1.90337e-05 15 7.83491 15 17.5C15 27.1651 22.9292 35 32.7108 35C36.6818 35.0058 40.5385 33.6875 43.6567 31.2583C39.5377 28.0546 36.8918 23.082 36.8918 17.5Z" fill="#EB001B"/>
<path d="M74.1044 17.5C74.1044 27.1651 65.6801 35 55.2876 35C51.0682 35.0057 46.9702 33.6874 43.6567 31.2583C48.0345 28.054 50.845 23.082 50.845 17.5C50.845 11.918 48.0345 6.946 43.6567 3.74166C46.9701 1.31265 51.068 -0.00567597 55.2873 1.83698e-05C65.6798 1.83698e-05 74.1041 7.83491 74.1041 17.5" fill="#F79E1B"/>
</svg>
