<svg width="90" height="25" viewBox="0 0 90 25" fill="none" xmlns="http://www.w3.org/2000/svg">
<g clip-path="url(#clip0)">
<path d="M24.2527 0.00555467V0.0164711C24.2416 0.0164711 20.7361 0.0055542 19.8013 3.2911C18.9444 6.30377 16.5295 14.6177 16.4628 14.8469H15.7951C15.7951 14.8469 13.3245 6.34743 12.4565 3.28019C11.5217 -0.00536219 8.0051 0.00555467 8.0051 0.00555467H-7.62939e-06V24.9946H8.00881V10.1532H8.67652L13.3505 24.9945H18.911L23.585 10.1641H24.2527V24.9945H32.2616V0.00555467H24.2527V0.00555467ZM53.5096 0.00555467C53.5096 0.00555467 51.1615 0.212946 50.0598 2.62537L44.3879 14.8469H43.7202V0.00555467H35.7114V24.9946H43.2751C43.2751 24.9946 45.7345 24.7763 46.8363 22.3749L52.3969 10.1533H53.0646V24.9946H61.0734V0.00555467H53.5096ZM64.6344 11.354V24.9946H72.6432V17.03H81.3199C85.1036 17.03 88.3049 14.6614 89.4956 11.3576H64.6344V11.354V11.354Z" fill="#4DB45E"/>
<path d="M81.3234 0.00543213H63.5104C64.4007 4.76457 68.0396 8.58133 72.7432 9.82569C73.8352 10.1158 74.9616 10.2626 76.0929 10.2624H89.8218C89.9442 9.69482 89.9998 9.1163 89.9998 8.51595C89.9999 3.81492 86.1161 0.00543213 81.3234 0.00543213V0.00543213Z" fill="url(#paint0_linear)"/>
</g>
<defs>
<linearGradient id="paint0_linear" x1="63.5104" y1="5.13391" x2="89.9999" y2="5.13391" gradientUnits="userSpaceOnUse">
<stop offset="0.3" stop-color="#00B4E6"/>
<stop offset="1" stop-color="#088CCB"/>
</linearGradient>
<clipPath id="clip0">
<rect width="90" height="25" fill="white"/>
</clipPath>
</defs>
</svg>
