<svg width="90" height="25" viewBox="0 0 90 25" fill="none" xmlns="http://www.w3.org/2000/svg">
<path d="M38.8485 24.3576H31.9126L36.2474 1.41004H43.184L38.8485 24.3576ZM26.0778 1.41004L19.4654 17.1936L18.683 13.7948L18.6837 13.796L16.3499 3.47621C16.3499 3.47621 16.0677 1.41004 13.0597 1.41004H2.12827L2 1.7986C2 1.7986 5.34287 2.3977 9.25511 4.42151L15.281 24.3582H22.5076L33.5424 1.41004H26.0778ZM80.6318 24.3576H87.0004L81.4477 1.40943H75.8723C73.2976 1.40943 72.6705 3.11957 72.6705 3.11957L62.3262 24.3576H69.5564L71.0023 20.949H79.8194L80.6318 24.3576ZM72.9997 16.2403L76.644 7.65274L78.6942 16.2403H72.9997ZM62.8685 6.92841L63.8583 2.00055C63.8583 2.00055 60.8041 1 57.6201 1C54.1782 1 46.0045 2.2958 46.0045 8.59681C46.0045 14.5252 55.5977 14.5989 55.5977 17.7129C55.5977 20.8269 46.9929 20.2689 44.1532 18.3052L43.122 23.4577C43.122 23.4577 46.219 24.7535 50.9508 24.7535C55.684 24.7535 62.8243 22.6426 62.8243 16.8971C62.8243 10.9306 53.1449 10.3751 53.1449 7.78103C53.1456 5.18635 59.9005 5.51966 62.8685 6.92841Z" fill="#2566AF"/>
<path d="M18.6837 13.7954L16.3499 3.47559C16.3499 3.47559 16.0677 1.40942 13.0597 1.40942H2.12827L2 1.79798C2 1.79798 7.25409 2.73592 12.2937 6.25012C17.1124 9.60902 18.6837 13.7954 18.6837 13.7954Z" fill="#E6A540"/>
</svg>
